<?xml version="1.0" standalone="no"?>
<!DOCTYPE svg PUBLIC "-//W3C//DTD SVG 20010904//EN"
 "http://www.w3.org/TR/2001/REC-SVG-20010904/DTD/svg10.dtd">
<svg version="1.0" xmlns="http://www.w3.org/2000/svg"
 width="100.000000pt" height="100.000000pt" viewBox="0 0 300.000000 300.000000"
 preserveAspectRatio="xMidYMid meet">
<metadata>
Created by potrace 1.10, written by Peter Selinger 2001-2011
</metadata>
<g transform="translate(0.000000,300.000000) scale(0.10000,-0.100000)"
fill="#0ea5e9" stroke="none">
<path d="M1523 1674 c-3 -8 -1 -20 5 -26 16 -16 42 -2 42 22 0 24 -38 28 -47
4z"/>
<path d="M1657 1653 c-4 -3 -7 -17 -7 -30 0 -16 -6 -23 -20 -23 -11 0 -20 -7
-20 -15 0 -8 9 -15 20 -15 18 0 20 -7 20 -80 0 -73 2 -81 24 -95 15 -10 33
-14 50 -9 34 8 28 27 -10 34 -29 5 -29 6 -32 78 l-3 72 31 0 c20 0 30 5 30 15
0 10 -10 15 -31 15 -29 0 -31 2 -27 30 4 28 -9 40 -25 23z"/>
<path d="M762 1600 c-28 -26 -29 -73 -2 -100 11 -11 40 -22 68 -26 60 -8 77
-17 69 -38 -5 -13 -23 -16 -90 -16 -76 0 -86 -2 -107 -25 l-23 -25 105 0 c59
0 114 3 123 6 26 10 46 59 36 86 -13 36 -34 48 -90 55 -51 6 -78 23 -66 43 7
11 321 15 350 4 8 -4 23 -20 31 -36 27 -51 -6 -108 -63 -108 -34 0 -44 8 -98
75 l-24 30 -1 -149 0 -149 25 23 c21 20 25 32 25 83 0 53 2 58 18 52 36 -16
80 -16 111 -1 81 42 81 172 1 220 -23 13 -59 16 -202 16 -162 0 -176 -1 -196
-20z"/>
<path d="M1343 1603 c-62 -12 -99 -97 -69 -160 35 -73 144 -79 186 -10 54 88
-15 188 -117 170z m77 -53 c45 -45 13 -130 -50 -130 -40 0 -70 31 -70 73 0 67
75 102 120 57z"/>
<path d="M1843 1599 c-90 -26 -95 -168 -8 -205 44 -18 59 -18 101 2 27 13 32
19 23 30 -8 10 -16 11 -29 4 -34 -18 -88 -12 -104 12 -9 12 -16 26 -16 30 0 5
38 8 85 8 77 0 85 2 85 19 0 72 -66 120 -137 100z m79 -46 c34 -41 32 -43 -41
-43 -75 0 -84 7 -51 40 25 25 72 26 92 3z"/>
<path d="M1530 1495 c0 -98 1 -105 20 -105 19 0 20 7 20 105 0 98 -1 105 -20
105 -19 0 -20 -7 -20 -105z"/>
<path d="M2005 1581 c47 -150 63 -186 81 -189 17 -2 24 9 44 73 13 41 26 75
29 75 3 0 17 -34 30 -75 33 -106 50 -103 91 18 17 50 34 98 37 105 3 7 -3 12
-15 12 -15 0 -24 -16 -43 -80 -13 -44 -26 -80 -29 -80 -3 0 -16 36 -29 80 -18
59 -28 80 -41 80 -13 0 -23 -21 -41 -80 -13 -44 -27 -80 -30 -80 -3 0 -16 36
-28 80 -19 65 -27 80 -43 80 -15 0 -18 -5 -13 -19z"/>
</g>
</svg>
